<svg width="32" height="32" viewBox="0 0 184 119" fill="none" xmlns="http://www.w3.org/2000/svg">
<path d="M101.669 85.248H80.512V88.9354V91.6555H107.989L105.306 88.9354L101.669 85.248Z" fill="black"/>
<path d="M42.624 110.878V118.679H88.3124V110.321C84.0779 111.435 81.3477 107.256 80.512 105.028V91.6555V88.9354V85.248V63.7967L101.669 85.248L105.306 88.9354L107.989 91.6555L120.629 104.471C121.743 108.259 118.121 110.321 116.171 110.878V118.121H183.59V110.321H182.197C171.276 110.098 164.088 105.028 161.86 102.52L101.685 42.3454L114.5 29.5304C112.494 25.5187 109.207 24.33 107.814 24.2372H96.9487L80.2334 40.9525L80.512 16.1581H109.207C119.904 17.4953 122.579 27.1159 122.579 31.7591H130.658V0.278595H0.278564V31.7591H8.07904C8.30191 20.6155 17.4582 16.7153 22.0084 16.1581H50.4244C50.8888 44.0169 51.5388 100.793 50.4244 105.028C49.3101 109.262 44.7598 110.692 42.624 110.878Z" fill="black"/>
<path d="M80.512 85.248V63.7967L101.669 85.248M80.512 85.248H101.669M80.512 85.248V88.9354V91.6555M101.669 85.248L105.306 88.9354L107.989 91.6555M80.512 91.6555V105.028C81.3477 107.256 84.0779 111.435 88.3124 110.321V118.679H42.624V110.878C44.7598 110.692 49.3101 109.262 50.4244 105.028C51.5388 100.793 50.8888 44.0169 50.4244 16.1581H22.0084C17.4582 16.7153 8.30191 20.6155 8.07904 31.7591H0.278564V0.278595H130.658V31.7591H122.579C122.579 27.1159 119.904 17.4953 109.207 16.1581H80.512L80.2334 40.9525L96.9487 24.2372H107.814C109.207 24.33 112.494 25.5187 114.5 29.5304L101.685 42.3454L161.86 102.52C164.088 105.028 171.276 110.098 182.197 110.321H183.59V118.121H116.171V110.878C118.121 110.321 121.743 108.259 120.629 104.471L107.989 91.6555M80.512 91.6555H107.989" stroke="black" stroke-width="0.557177"/>
</svg>
